{"title":"The Interview 1998.480i.DVDRip.H.264 . NVEE","uid":9049537,"size":1145186424,"categoryP":"video","categoryS":"movies","magnet":"?xt=urn:btih:749ba62d15b03009008188ae0d2db69e4d238996&amp;dn=The+Interview+1998.480i.DVDRip.H.264+.+NVEE&amp;tr=udp%3A%2F%2Ftracker.openbittorrent.com%3A80&amp;tr=udp%3A%2F%2Fopen.demonii.com%3A1337&amp;tr=udp%3A%2F%2Ftracker.coppersurfer.tk%3A6969&amp;tr=udp%3A%2F%2Fexodus.desync.com%3A6969","seeders":5,"leechers":0,"uploader":".NVEE","files":1,"time":1381843310,"description":"\nFULL_INFOs\n\n\n99.99% --- SYNCED GUARANTEED \n\n&quot;Totally scrutinized / analyzed to be a verified torrent.&quot;\n\nSource : DVD\n\nMy Media Player of Choice &quot;VLC Media Player via HDMI&quot;\n\nSpoken Language : English Only\n\nAudio : 2 ~ Channels Only\n\n\nDon't delete torrent link,... Please seed . NVEE\n\n\n\n &lt;a href=&quot;\nhttp://www.imdb.com/title/tt0120714/&quot; rel=&quot;nofollow&quot; target=&quot;_NEW&quot;&gt;\nhttp://www.imdb.com/title/tt0120714/&lt;/a&gt;\n\n\n\n\nSubs Info : No subs available.\n\n\n\n\nGeneral Metadata\n\nComplete name : The Interview 1998.480i.DVDRip.H.263 . NVEE.divx\nFormat : AVI\nFormat/Info : Audio Video Interleave\nFile size : 1.07 GiB\nDuration : 1h 40mn\nOverall bit rate : 1 525 Kbps\n\n\nVideo\n\nID : 0\nFormat : MPEG-4 Visual\nFormat settings, BVOP : 1\nFormat settings, QPel : No\nFormat settings, GMC : No warppoints\nFormat settings, Matrix : Default (H.263)\nMuxing mode : Packed bitstream\nCodec ID : DX50\nCodec ID/Hint : DivX 5\nDuration : 1h 40mn\nBit rate : 1 323 Kbps\nWidth : 720 pixels\nHeight : 400 pixels\nDisplay aspect ratio : 16:9\nFrame rate : 25.000 fps\nColor space : YUV\nChroma subsampling : 4:2:0\nBit depth : 8 bits\nScan type : Progressive\nCompression mode : Lossy\nBits/(Pixel*Frame) : 0.184\nStream size : 948 MiB (87%)\nTitle : Video\nWriting library : DivX 6.8.5 (UTC 2009-08-20)\n\n\nAudio\n\nID : 1\nFormat : AC-3\nFormat/Info : Audio Coding 3\nMode extension : CM (complete main)\nFormat settings, Endianness : Big\nCodec ID : 2000\nDuration : 1h 40mn\nBit rate mode : Constant\nBit rate : 192 Kbps\nChannel(s) : 2 channels\nChannel positions : Front: L R\nSampling rate : 48.0 KHz\nBit depth : 16 bits\nCompression mode : Lossy\nStream size : 138 MiB (13%)\nAlignment : Split accross interleaves\nInterleave, duration : 40 ms (1.00 video frame)\nInterleave, preload duration : 500 ms\nTitle : Audio\n\n\n\n &lt;a href=&quot;\nhttp://www.imdb.com/title/tt0120714/&quot; rel=&quot;nofollow&quot; target=&quot;_NEW&quot;&gt;\nhttp://www.imdb.com/title/tt0120714/&lt;/a&gt;\n\n\n\n\nSynopsis\n\nEddie Rodney Fleming (Weaving) is a quiet, nervous man who recently lost his job and family. One morning, Eddie is seized from his apartment for unknown reasons by two men claiming to be cops. They take him to headquarters and question him about a stolen car. But as tempers rise and the truth is slowly unraveled, Eddie realizes there's more to this interview than meets the eye.\n\nEnjoy !\n","torrent":{"xt":"urn:btih:749ba62d15b03009008188ae0d2db69e4d238996","amp;dn":"The+Interview+1998.480i.DVDRip.H.264+.+NVEE","amp;tr":["udp%3A%2F%2Ftracker.openbittorrent.com%3A80","udp%3A%2F%2Fopen.demonii.com%3A1337","udp%3A%2F%2Ftracker.coppersurfer.tk%3A6969","udp%3A%2F%2Fexodus.desync.com%3A6969"],"infoHash":"749ba62d15b03009008188ae0d2db69e4d238996","infoHashBuffer":{"type":"Buffer","data":[116,155,166,45,21,176,48,9,0,129,136,174,13,45,182,158,77,35,137,150]},"announce":[],"urlList":[]}}